<?xml version="1.0" standalone="no"?>
<!DOCTYPE svg PUBLIC "-//W3C//DTD SVG 1.1//EN" "http://www.w3.org/Graphics/SVG/1.1/DTD/svg11.dtd" >
<!--
2013-9-30: Created.
-->
<svg>
<metadata>
Created by iconfont
</metadata>
<defs>

<font id="iconfont" horiz-adv-x="1024" >
  <font-face
    font-family="iconfont"
    font-weight="500"
    font-stretch="normal"
    units-per-em="1024"
    ascent="896"
    descent="-128"
  />
    <missing-glyph />
    
    <glyph glyph-name="x" unicode="x" horiz-adv-x="1001"
d="M281 543q-27 -1 -53 -1h-83q-18 0 -36.5 -6t-32.5 -18.5t-23 -32t-9 -45.5v-76h912v41q0 16 -0.5 30t-0.5 18q0 13 -5 29t-17 29.5t-31.5 22.5t-49.5 9h-133v-97h-438v97zM955 310v-52q0 -23 0.5 -52t0.5 -58t-10.5 -47.5t-26 -30t-33 -16t-31.5 -4.5q-14 -1 -29.5 -0.5
t-29.5 0.5h-32l-45 128h-439l-44 -128h-29h-34q-20 0 -45 1q-25 0 -41 9.5t-25.5 23t-13.5 29.5t-4 30v167h911zM163 247q-12 0 -21 -8.5t-9 -21.5t9 -21.5t21 -8.5q13 0 22 8.5t9 21.5t-9 21.5t-22 8.5zM316 123q-8 -26 -14 -48q-5 -19 -10.5 -37t-7.5 -25t-3 -15t1 -14.5
t9.5 -10.5t21.5 -4h37h67h81h80h64h36q23 0 34 12t2 38q-5 13 -9.5 30.5t-9.5 34.5q-5 19 -11 39h-368zM336 498v228q0 11 2.5 23t10 21.5t20.5 15.5t34 6h188q31 0 51.5 -14.5t20.5 -52.5v-227h-327z" />
    

    
    <glyph glyph-name="vip" unicode="&#58900;" d="M525.308168-145.313375c-246.273999 0-446.646274 200.538887-446.646274 447.021152 0 246.503091 200.372275 447.062805 446.646274 447.062805 246.378132 0 446.833713-200.559714 446.833713-447.062805C972.141881 55.225513 771.6863-145.313375 525.308168-145.313375zM525.308168 707.117475c-223.323137 0-404.993166-181.857468-404.993166-405.409697 0-223.510576 181.690856-405.368044 404.993166-405.368044 223.42727 0 405.180605 181.836642 405.180605 405.368044C930.488773 525.23918 748.714611 707.117475 525.308168 707.117475zM422.216726 429.728604l42.840221 0.06248-103.278881-283.032867-40.61178 0-103.445493 283.032867 42.590303-0.06248 80.952815-241.442239L422.216726 429.728604zM547.05109 429.770257l0-283.032867-38.237553 0 0 283.032867L547.05109 429.770257zM654.661894 266.177677l0-119.41946-38.237553 0 0 283.032867 127.312724 0c25.741621 0 46.193296-7.43508 61.292548-22.263586 15.099252-14.849333 22.659291-33.968109 22.659291-57.356329 0-22.617637-6.310446-41.528148-18.910511-56.773186-14.995119-18.139928-36.675561-27.220306-65.041328-27.220306L654.661894 266.177677zM654.661894 397.051741l0-98.155548 76.058575 0c18.410674 0 32.343638 3.6863 41.798894 11.038074 10.496583 8.143183 15.765701 21.409697 15.765701 39.799544 0 16.827856-5.394077 29.157175-16.161406 37.050439-9.455255 6.83111-22.72177 10.246664-39.799544 10.246664L654.661894 397.030914z"  horiz-adv-x="1028" />

    
    <glyph glyph-name="banyuanzuo" unicode="&#58885;" d="M736.476029-148.953082c-247.950162 0-448.954105 201.00292-448.954105 448.953082S488.525867 748.953082 736.476029 748.953082"  horiz-adv-x="1024" />

    
    <glyph glyph-name="banyuanyou" unicode="&#58886;" d="M287.522947 748.953082c247.950162 0 448.954105-201.00292 448.954105-448.953082S535.472086-148.953082 287.522947-148.953082"  horiz-adv-x="1024" />

    
    <glyph glyph-name="mohefang" unicode="&#58908;" d="M476.411969 511.701586c33.736359-14.112416 67.13912-29.1806 101.320617-42.178635 25.215288-9.588379 48.63058-24.560372 80.166831-27.395954 6.868431 2.644223 17.808598 5.064342 26.699082 10.735505 9.872858 6.274914 27.619034 7.29515 27.650757 20.961404 0.063445 17.171078-18.35095 16.629749-30.568203 21.12104-45.792952 16.789385-92.78215 31.029714-136.951115 51.354622-26.696012 12.296047-46.971801 2.771113-69.559239-5.574972-6.500041-2.421142-13.141298-5.526877-13.986549-13.093203C459.990974 517.021755 468.957183 514.823694 476.411969 511.701586zM573.034587 427.455857c-42.402739 17.441231-86.810135 31.18935-126.823454 53.011354-47.737234 26.042119-89.692788 21.072945-133.686768-9.272177 5.877871-15.434527 21.23258-18.173918 34.007535-23.685445 47.084365-20.22974 95.17157-38.322817 141.283794-60.511165 32.397874-15.594163 58.950623-8.968256 87.303368 8.489348C597.595982 409.346407 595.239308 418.328989 573.034587 427.455857zM484.806149 345.441958c-63.618946 26.40744-126.757962 53.965076-190.32779 80.468706-21.502733 8.951883-33.146934 2.676969-32.876782-22.790052 0.669242-63.634296 0.477884-127.253242 0.063445-190.901865-0.096191-15.131629 5.240351-26.505677 18.254759-33.609469 66.452481-36.189224 133.033899-72.155367 199.582571-108.187001 18.987447-10.29139 28.129664-3.53757 28.241204 16.996093 0.23843 37.894052 0.079818 75.80243 0.079818 113.712855 0.127913 0 0.255827 0 0.381693 0 0 33.863249-0.031722 67.693752 0 101.559047C508.220419 321.230534 504.955048 337.095873 484.806149 345.441958zM762.1999 418.202099c-0.030699 17.458627-4.203742 24.879644-24.416086 16.344247-37.480636-15.833617-67.490114-33.943067-59.113329-82.796728 3.568269-20.881586-0.698918-45.683459-27.363208-45.331441-24.051789 0.301875-12.199856 25.102724-15.546068 39.247886-2.324952 9.749038 2.692319 23.287379-13.140275 25.645077-21.615297 3.217275-71.152527-37.559431-71.343885-60.114123-0.653893-71.933309-0.286526-143.898341-0.255827-215.83165 0.017396-27.301809 11.995195-29.977755 33.004695-16.532535 23.970948 15.33936 47.2747 32.464389 72.983221 44.26618 82.048691 37.670971 133.76761 90.710978 105.207134 172.902932C762.21525 347.608298 762.250042 382.906222 762.1999 418.202099zM927.106718 744.113867 96.892259 744.113867c-16.020882 0-29.007661-12.985756-29.007661-29.006637l0-830.215482c0-16.020882 12.985756-29.006637 29.007661-29.006637l830.215482 0c16.019859 0 29.007661 12.986779 29.007661 29.006637L956.115402 715.108253C956.114378 731.129134 943.125553 744.113867 927.106718 744.113867zM764.923942 142.290095c-70.230528-40.904619-138.961912-84.483136-207.595059-128.062678-19.497053-12.361539-36.109406-13.380752-56.545854-2.070148-82.95534 45.937239-166.228929 91.334171-250.204505 135.357827-20.020986 10.480702-26.758434 24.11728-26.66429 45.141106 0.476861 86.857207 0.509606 173.714414 0.047072 260.556271-0.110517 21.949918 8.553817 34.262338 29.595039 42.434461 76.934207 29.881564 153.311735 61.229526 229.640144 92.638887 21.391193 8.79327 42.211381 8.855692 63.395866 1.099031 72.427566-26.552749 144.630005-53.741995 217.294978-79.641875 26.249851-9.349949 39.534412-23.780613 37.990243-53.726645-2.245134-43.294039-0.575098-86.810135-0.575098-130.23004 0.033769-38.004569-1.671059-76.106352 0.557702-113.950262C803.742039 179.818827 793.642007 159.013989 764.923942 142.290095z"  horiz-adv-x="1024" />

    
    <glyph glyph-name="shipin" unicode="&#58959;" d="M391.817077 217.383888c0.098794 0.197588 0.098794 0 0.197588 0.296382-0.197588 0.49397-0.296382 0.49397-0.395176 0.691558L391.817077 217.383888zM505.825374 805.010709c-235.920116 0-427.185335-191.265219-427.185335-427.185335S269.905258-49.261167 505.825374-49.261167s427.185335 191.265219 427.185335 427.185335S741.74549 805.010709 505.825374 805.010709zM505.825374-4.309889c-211.122817 0-382.135263 171.11124-382.135263 382.135263S294.702557 760.059431 505.825374 760.059431s382.135263-171.11124 382.135263-382.135263S716.948191-4.309889 505.825374-4.309889zM690.668982 401.634732l0.197588-0.098794c4.050555-2.568644 6.421611-4.346937 6.816787-4.840907l-6.816787 4.840907C648.681524 428.704293 423.233575 557.729281 415.922817 557.729281c-7.014375 0-13.04081-3.457791-17.190159-8.496286-2.766233-2.766233-6.322817-10.472166-7.409551-14.423927-1.284322-4.544525-0.790352-312.97945 0.592764-317.128799 3.260203-12.05287 19.067246-21.438302 31.120116-18.276893 2.766233 0.98794 5.334877 2.371056 7.508345 4.248143l260.816208 149.672938c10.472166 2.766233 16.794983 12.645634 16.202219 23.019006C708.056729 386.81563 701.042354 398.769706 690.668982 401.634732zM438.349059 258.383406 438.349059 494.599904 644.137 376.442258 438.349059 258.383406z"  horiz-adv-x="1145" />

    
    <glyph glyph-name="saoma" unicode="&#58894;" d="M163.84 506.88 163.84 691.305599C163.84 713.926944 182.051928 732.16 204.694401 732.16L819.305599 732.16C841.926943 732.16 860.16 713.948072 860.16 691.305599L860.16 506.88 880.64 506.88 901.12 506.88 901.12 691.305599C901.12 736.627696 864.490445 773.12 819.305599 773.12L204.694401 773.12C159.372304 773.12 122.88 736.490445 122.88 691.305599L122.88 506.88 143.36 506.88 163.84 506.88 163.84 506.88ZM143.36 261.12 122.88 261.12 122.88 76.694401C122.88 31.372304 159.509555-5.12 204.694401-5.12L819.305599-5.12C864.627696-5.12 901.12 31.509555 901.12 76.694401L901.12 261.12 880.64 261.12 860.16 261.12 860.16 76.694401C860.16 54.073057 841.948072 35.84 819.305599 35.84L204.694401 35.84C182.073056 35.84 163.84 54.051928 163.84 76.694401L163.84 261.12 143.36 261.12 143.36 261.12ZM122.88 404.48 901.12 404.48 901.12 363.52 122.88 363.52 122.88 404.48 122.88 404.48Z"  horiz-adv-x="1024" />

    
    <glyph glyph-name="jilu" unicode="&#58951;" d="M896 510.876809 896 510.876809 896 704.160914C896 774.589609 838.448026 832 767.454067 832L256.545933 832C185.724823 832 128 774.524575 128 703.625046L128 64.374957C128-6.588154 185.515683-64 256.464872-64L381.953784-64 381.953784 0 256.464872 0C220.825001 0 192 28.79497 192 64.374957L192 703.625046C192 739.086379 220.979021 768 256.545933 768L767.454067 768C803.106426 768 832 739.238153 832 704.160914L832 510.876809 896 510.876809ZM793.273683 403.565381 793.273683 403.565381 883.783347 403.565381 517.728577 37.510611 472.473743 82.765446 536.013653 75.105165 528.871259 15.860947C527.479766 4.318893 529.799504 2.007904 541.333751 3.398458L600.577969 10.540851 608.238245-52.999059 562.983411-7.744224 929.038182 358.310547 929.038182 267.800879 793.273683 403.565381ZM838.528512 448.820215 974.293018 313.055713 608.238245-52.999059 548.994028-60.141453C496.454294-66.475565 458.94805-29.426502 465.331349 23.521229L472.473743 82.765446 838.528512 448.820215 838.528512 448.820215ZM352 576 672 576C689.673114 576 704 590.326888 704 608 704 625.673112 689.673114 640 672 640L352 640C334.326888 640 320 625.673112 320 608 320 590.326888 334.326888 576 352 576L352 576ZM352 384 608 384C625.673112 384 640 398.326888 640 416 640 433.673112 625.673112 448 608 448L352 448C334.326888 448 320 433.673112 320 416 320 398.326888 334.326888 384 352 384L352 384ZM352 192 416 192C433.673112 192 448 206.326886 448 224 448 241.673114 433.673112 256 416 256L352 256C334.326888 256 320 241.673114 320 224 320 206.326886 334.326888 192 352 192L352 192Z"  horiz-adv-x="1024" />

    
    <glyph glyph-name="huodong" unicode="&#59032;" d="M706.052 818.254v0c8.598 0 24.269-1.339 34.396-10.701 2.293-2.1 9.171-8.598 9.171-24.461 0-17.962-9.746-46.243-37.071-71.659-33.441-31.149-88.666-54.653-128.222-54.653-11.468 0-16.816 2.1-17.771 2.1h-0.192c-7.263 14.906 8.79 79.874 54.843 122.873 24.65 22.739 56.373 36.499 84.844 36.499v0zM706.052 894.117c-45.861 0-96.309-19.491-136.441-56.945-69.174-64.397-109.302-183.065-55.609-233.324 17.199-16.053 42.23-23.122 70.321-23.122 59.43 0 133.19 31.338 180.007 74.91 68.981 64.397 81.595 157.267 27.709 207.332-22.549 21.020-53.123 31.338-85.991 31.149v0 0M317.948 818.254c28.473 0 60.192-13.759 84.654-36.689 46.626-43.378 62.487-108.922 55.989-121.915 0 0-4.969-3.057-18.916-3.057-39.747 0-94.781 23.503-128.222 54.653-27.326 25.414-37.071 53.696-37.071 71.659 0 16.053 6.879 22.357 9.171 24.461 10.127 9.553 25.989 10.892 34.396 10.892v0zM317.948 894.117c-33.058 0-63.442-10.127-85.991-31.149-53.696-50.064-41.275-142.937 27.901-207.332 46.817-43.761 120.58-74.91 180.007-74.91 28.091 0 53.123 7.069 70.321 23.122 53.696 50.064 13.377 168.733-55.609 233.324-40.321 37.452-90.767 56.945-136.629 56.945v0 0M958.484 283.2v260.457c0 40.893-33.441 74.335-74.335 74.335h-334.982v-334.791h409.319M549.167 208.673v-334.982h334.982c40.893 0 74.335 33.441 74.335 74.526v260.457h-409.319M474.833 283.2v334.791h-334.982c-40.893 0-74.335-33.441-74.335-74.335v-260.457h409.319M65.516 208.673v-260.457c0-40.893 33.441-74.526 74.335-74.526h334.982v334.982h-409.319z"  horiz-adv-x="1024" />

    
    <glyph glyph-name="jifen" unicode="&#58906;" d="M500.375 896c-7.5 0-15-0.125-22.5-0.375-15.5-0.5-27.5-13.125-27-28.125 0.625-15 13.625-26.625 29.125-26l0 0c6.75 0.25 13.5 0.375 20.25 0.375 283.625-0.5 513.125-222.375 513.625-496.625 0-171.375-89.75-322.375-226.5-411.75-12.875-8.375-16.125-25.25-7.5-37.625 5.375-7.75 14.25-11.875 23.25-11.875 5.375 0 10.875 1.5 15.625 4.625 151.5 98.875 251.125 266.625 251.25 456.625C1070.125 649.375 815.125 896 500.375 896L500.375 896zM525.875 368.125c1 0 2.125 0.125 3.375 0.25l0.75 0 126 0c4.5 0 5.875 1.375 5.875 5.875L661.875 506.75c0 1.5 0 4.375-6.375 5.875L527.75 512.625c-2.625 0-5.875 0-5.875-8l0-130.875-0.125-0.375c-0.375-2.5-0.125-3.875 0.25-4.375C522.5 368.5 523.625 368.125 525.875 368.125L525.875 368.125zM483.25 806.25C216.375 806.25 0 597.125 0 339.125c0-258 216.375-467.125 483.25-467.125 266.875 0 483.25 209.125 483.25 467.125C966.625 597.125 750.25 806.25 483.25 806.25L483.25 806.25zM393.25 262.75c-2.375 3.125-5.125 6.625-8.25 10.625l0-166.75 0-0.25c-1.25-13.125-8.375-29.125-35.75-31.25l-0.375 0-0.375 0c-29.625 2.125-35.75 18.5-35.75 31.75L312.75 226c-6.625-16.875-13.75-31.125-21.375-42.5l-0.125-0.125c-9.125-12.5-20.125-18.875-32.75-18.875-5.625 0-11.625 1.25-17.75 3.875l-0.5 0.25c-13.125 7.125-25.75 21.5-10.875 49l0.125 0.25c32.375 52.125 58.375 113.375 77.125 182L256 399.875c-14.5 0-31.75 6.25-31.75 36.125l0 0.375c1.625 21.75 14 34.125 35.75 35.75l0.375 0 52.25 0 0 45.75c-5.5-1-12.375-2.125-20.625-3.125l-0.625 0L269.5 514.75c-3.5-0.375-6.75-0.625-9.875-0.625-25.5 0-33.375 14.75-35.375 27.125l-0.125 0.375 0 0.375c0 23 12.875 37.75 37.375 42.625l0.5 0.125L280 584.75c52.375 5.75 92.25 11.75 118.5 17.5l0.375 0.125c3 0.375 5.875 0.625 8.625 0.625 18.375 0 31.125-9.875 37-28.625l0.125-0.625 0-0.625c1.625-21.75-9.625-35.875-32.75-40.875-5.875-1.5-11.75-3-17.625-4.375l-0.625-0.125L385 527.75 385 472.25l35 0c9.875-0.875 21.5-5.25 27.5-19.125l0 80c-1.625 18 1.625 31.5 9.625 40.25 7.75 8.5 19.625 12.375 35.5 11.625l187.625 0c20.25 0.75 35.25-3.75 44.625-13.625 8.375-8.75 12.25-21.625 11.5-38.125l0-189.75c0.75-16.5-2.75-29-10.5-37-6.75-7.125-16.625-10.75-29.375-10.75-2.375 0-5 0.125-7.625 0.375L488.125 296.125c-1.25-0.125-2.5-0.125-3.625-0.125 0 0 0 0 0 0-11.625 0-20.625 3.375-27 10-7.625 8-11 20.5-10.125 37.375l0 74.75c-6-14.625-17.875-18.125-27.875-18.125L385 400l0-8.5c4-5.375 8.125-10.875 12.125-16.25 29.875-37.375 46.5-58.375 50.875-64.125l0.375-0.625c11.5-21.375 9.625-39.75-5.375-54.75l-0.375-0.375c-7.125-5.75-14.375-8.625-21.5-8.625-9.75 0-19.125 5.375-27.75 16L393.25 262.75 393.25 262.75zM567.75 230.375c-26.625-48.75-61-95.875-102.375-140.25l-0.5-0.5c-10.25-8.5-20.75-12.875-31.25-12.875 0 0 0 0 0 0-9.5 0-19 3.5-28.25 10.5l-0.375 0.25-0.375 0.375c-10.625 11.75-18.375 30.625 4.625 53.625 30.375 30.375 60.625 72.375 89.75 124.75l0.125 0.25c9 14.75 20.375 22.125 33.875 22.125 6 0 12.5-1.625 19.25-4.625l0.5-0.25C574.125 270.375 579.375 251.875 567.75 230.375L567.75 230.375zM738.125 93.5l-0.375-0.25-0.5-0.125c-4.875-1.75-9.5-2.625-14-2.625 0 0 0 0 0 0-12.375 0-22.5 6.875-29.875 20.375-32.125 52.5-60.25 94.625-83.625 125.375-6.625 9.125-9.25 17.875-7.75 26.125 1.5 8.625 7.5 16.5 17.875 23.375l0.25 0.125c16.5 9.875 34.5 7.5 52.375-7.125l0.5-0.375 0.375-0.5c30.875-39.75 59.375-85.375 84.5-135.625l0.25-0.75C764.75 121.625 757.875 105 738.125 93.5L738.125 93.5z"  horiz-adv-x="1071" />

    
    <glyph glyph-name="rank-2" unicode="&#58881;" d="M526.336 599.040c34.816 7.168 61.44 36.864 61.44 73.728 0 41.984-33.792 75.776-75.776 75.776s-75.776-33.792-75.776-75.776c0-34.816 23.552-63.488 55.296-72.704l-184.32-323.584-205.824 180.224c18.432 11.264 30.72 30.72 30.72 53.248 0 34.816-28.672 62.464-63.488 62.464-34.816 0-63.488-27.648-63.488-62.464 0-34.816 28.672-62.464 63.488-62.464 9.216 0 17.408 2.048 25.6 5.12l70.656-352.256c33.792-46.080 176.128-79.872 347.136-79.872 166.912 0 307.2 35.84 345.088 79.872l86.016 347.136-203.776-174.080-212.992 325.632zM955.392 572.416c-34.816 0-63.488-27.648-63.488-62.464s28.672-62.464 63.488-62.464c34.816 0 63.488 27.648 63.488 62.464-0 34.816-28.672 62.464-63.488 62.464z"  horiz-adv-x="1024" />

    
    <glyph glyph-name="shouye" unicode="&#58923;" d="M819.2-25.600000000000023h-153.6v204.8H358.4v-204.8H204.8V445.44l307.2 307.2 307.2-307.2V-25.600000000000023z m102.4 512l-409.6 409.6L0 384l71.68-71.68 30.72 30.72V-128h358.4v204.8h102.4v-204.8h358.4v471.04l30.72-30.72L1024 384l-102.4 102.4z"  horiz-adv-x="1024" />

    
    <glyph glyph-name="weibiaoti--" unicode="&#59175;" d="M512-127.616C229.888-127.616 0.384 101.888 0.384 384 0.384 666.112 229.888 895.616 512 895.616 794.112 895.616 1023.616 666.112 1023.616 384c0-282.112-229.504-511.616-511.616-511.616zM512 871.616C243.136 871.616 24.384 652.864 24.384 384S243.136-103.616 512-103.616 999.616 115.136 999.616 384 780.864 871.616 512 871.616zM752 380h-480a12 12 0 0 0 0 24h480a12 12 0 0 0 0-24zM752 252h-480a12 12 0 0 0 0 24h480a12 12 0 0 0 0-24zM512 76a12 12 0 0 0-12 12v288a12 12 0 0 0 24 0v-288a12 12 0 0 0-12-12zM512 364a12.032 12.032 0 0 0-9.888 5.184l-209.952 304a11.968 11.968 0 1 0 19.744 13.6l209.952-304a11.936 11.936 0 0 0-9.856-18.784zM512 364a12 12 0 0 0-9.856 18.784l209.952 304a12 12 0 1 0 19.744-13.6l-209.952-304a12.032 12.032 0 0 0-9.888-5.184z"  horiz-adv-x="1024" />

    
    <glyph glyph-name="liwu" unicode="&#58902;" d="M646.252 596.56c-2.264 0.755-4.608 0.863-6.387 0.863-21.989 0-45.002-39.262-60.092-77.366 56.508 3.746 82.324 32.66 84.641 51.955 1.779 15.063-9.189 21.53-18.162 24.549zM512 896C229.241 896 0 666.759 0 384s229.241-512 512-512 512 229.241 512 512S794.759 896 512 896z m-26.947-781.474H350.316c-29.777 0-53.895 24.118-53.895 53.895V303.158c0 29.75 24.118 53.895 53.895 53.895h134.737v-242.527z m242.526 53.895c0-29.777-24.118-53.895-53.895-53.895H538.947V357.053h134.737c29.777 0 53.895-24.145 53.895-53.895V168.42z m26.947 256c0-7.437-6.036-13.474-13.473-13.474H282.947c-7.437 0-13.473 6.037-13.473 13.474v53.895c0 7.437 6.036 13.473 13.473 13.473h81.462c-27.136 19.537-43.089 45.11-46.241 71.276-4.743 39.29 16.6 72.866 53.436 85.18 6.36 2.13 13.285 3.45 20.21 3.45 63.92 0 99.733-93.83 114.311-134.844h19.16c13.312 40.42 50.634 136.003 114.553 136.003 6.899 0 13.582-0.997 20.21-3.18 36.865-12.234 58.315-45.891 53.437-85.18-3.287-26.463-19.105-53.14-47.966-72.705H741.053c7.437 0 13.473-6.036 13.473-13.473v-53.895zM391.815 596.264c-2.29 0-4.339-0.296-6.387-1.158-9.458-2.318-19.564-9.836-18.162-24.253 1.913-19.375 28.133-48.505 84.884-52.278-15.845 37.861-38.589 77.69-60.335 77.69z m-26.328-105.39"  horiz-adv-x="1024" />

    
    <glyph glyph-name="card" unicode="&#58938;" d="M901.040 684c5.643 0 10.233-4.591 10.233-10.233v-587.378c0-5.643-4.591-10.233-10.233-10.233h-761.34c-5.643 0-10.233 4.591-10.233 10.233v587.378c0 5.643 4.591 10.233 10.233 10.233h761.34M901.040 735.165h-761.34c-33.909 0-61.398-27.489-61.398-61.398v-587.378c0-33.909 27.489-61.398 61.398-61.398h761.34c33.909 0 61.398 27.489 61.398 61.398v587.378c0 33.909-27.489 61.398-61.398 61.398zM829.409 479.338h-609.89c-15.824 0-28.653 12.828-28.653 28.653s12.828 28.653 28.653 28.653h609.89c15.824 0 28.653-12.828 28.653-28.653s-12.828-28.653-28.653-28.653zM360.735 162.113h-141.216c-15.824 0-28.653 12.828-28.653 28.653s12.828 28.653 28.653 28.653h141.216c15.824 0 28.653-12.828 28.653-28.653s-12.828-28.653-28.653-28.653z"  horiz-adv-x="1024" />

    
    <glyph glyph-name="shouyintai-richangshouzhi-zhichu-gongzijiangjin" unicode="&#59191;" d="M845.997422 530.090263c8.159844-2.241041 14.112416-9.013281 14.112416-16.678868v-501.1857c0-9.465582-9.151427-17.466814-19.985171-17.466814H183.97357c-10.830673 0-19.9821 8.001231-19.9821 17.466814V513.411395c0 7.665587 5.951549 14.434757 14.113439 16.678868L465.840192 414.90487a123.783211 123.783211 0 0 1 46.208415-8.905833c15.902178 0 31.452339 2.996241 46.213531 8.905833l287.735284 115.185393m-1.991354 41.227983c-2.90926 0-5.79703-0.590448-8.507768-1.676175L543.168372 452.61882a83.724867 83.724867 0 0 0-62.23032 0L188.60403 569.642071c-2.710738 1.086751-5.603625 1.676176-8.508791 1.676175-0.655939 0-1.308809-0.031722-1.963724-0.091074-30.620391-2.841721-54.763255-27.757181-54.763255-57.8168v-501.184677c0-31.949666 27.27111-58.086953 60.60531-58.086953H840.124667c33.332153 0 60.609403 26.137287 60.609403 58.086953v501.184677c0 30.058596-24.14491 54.974056-54.762231 57.8168a21.871123 21.871123 0 0 1-1.965771 0.091074zM591.119477 173.512055c10.832719 0 19.596314-8.78099 19.596314-19.592221 0-10.809183-8.763594-19.589151-19.596314-19.58915h-58.811454v-41.153282c0-9.727549-8.769734-17.626449-19.606547-17.62645s-19.603477 7.898901-19.603476 17.62645v41.153282h-58.809408c-10.836813 0-19.6045 8.778944-19.6045 19.58915s8.766664 19.59222 19.6045 19.592221h58.807361v39.187511h-58.807361c-10.836813 0-19.6045 8.78099-19.6045 19.59222 0 10.807137 8.766664 19.589151 19.6045 19.589151h40.231284l-37.592177 70.192665c-4.783956 8.906857-1.952468 20.299325 6.318916 25.437346 8.268314 5.145184 18.834974 2.089591 23.603581-6.810103l43.186591-80.649832c1.385557-2.580778 2.111081-5.383614 2.264577-8.170076h0.182148a19.279089 19.279089 0 0 0 2.304486 8.170076l43.871183 80.649832c4.847401 8.899694 15.566534 11.957333 23.978111 6.810103 8.378831-5.13802 11.249205-16.535605 6.408967-25.437346l-38.172391-70.192665h40.240492c10.837836 0 19.60143-8.782014 19.601431-19.589151 0-10.810207-8.763594-19.59222-19.601431-19.59222h-58.811453v-39.187511H591.119477z m143.30994 491.196185h-42.649356L584.390215 839.249485a20.300348 20.300348 0 0 1-27.933189 6.65763L196.862111 624.670361c-9.55461-5.878894-12.533454-18.389836-6.65763-27.942399l58.32743-94.803179 34.599006 21.287839-47.682999 77.503165 56.46706 34.741245v-133.858684h40.623209V624.086054h381.573485v-122.489752h40.62628V644.396635c0.001023 11.217483-9.093099 20.311605-20.308535 20.311605z m-394.96754 0L560.437687 800.663678l83.648119-135.954415-304.623929-0.001023z m300.809043-103.988376H406.383032c-11.220552 0-20.312628-9.094122-20.312628-20.311605s9.092076-20.310581 20.312628-20.310581H640.272967c11.220552 0 20.309558 9.093099 20.309558 20.310581s-9.091052 20.311605-20.311605 20.311605z"  horiz-adv-x="1024" />

    
    <glyph glyph-name="zhekou1" unicode="&#59042;" d="M497.664 514.56c14.336-14.336 37.888-16.384 52.736-2.048 14.336 14.336 12.8 37.888-2.048 52.736-14.336 14.336-37.888 16.384-52.736 2.048-14.336-14.848-12.8-38.4 2.048-52.736z m-347.648-492.544c199.168-199.168 524.8-199.168 723.968 0s199.168 524.8 0 723.968-524.8 199.168-723.968 0-199.168-524.8 0-723.968z m582.656 503.296c12.8-12.8 21.504-39.936 21.504-57.856l-3.584-300.544c0-17.92-16.384-34.304-34.304-34.304l-186.368-2.048h-36.352c-17.92 0-34.304 16.384-34.304 34.304l2.048 41.472 181.248 181.248c32.768 32.768 39.936 68.608 37.888 88.576l-5.632 107.008 57.856-57.856zM401.408 635.392c12.8 12.8 36.352 29.184 56.32 27.136l137.728-14.336c19.968-2.048 37.888-19.968 37.888-37.888l9.216-132.096c2.048-19.968-10.752-43.52-25.088-57.856l-213.504-213.504c-12.8-12.8-30.72-12.8-45.056 2.048L188.928 378.88c-14.336 14.336-16.384 30.72-2.048 45.056l213.504 213.504 1.024-2.048z"  horiz-adv-x="1024" />

    
    <glyph glyph-name="zhekou" unicode="&#58880;" d="M946.535 370.242L501.545 815.765c-0.204 0.204-0.442 0.319-0.67 0.512-7.09 9.24-18.109 15.269-30.633 15.269H102.174c-21.401 0-38.714-17.32-38.714-38.776v-368.484c0-12.552 6.04-23.604 15.285-30.686 0.205-0.205 0.319-0.444 0.528-0.656l445-445.477c15.092-15.144 39.642-15.144 54.745 0l367.516 367.945c15.12 15.124 15.12 39.713 0 54.83z m-711.879 217.35c-41.163 0-74.534 33.409-74.534 74.62 0 41.212 33.37 74.619 74.534 74.619 41.164 0 74.535-33.407 74.535-74.62 0-41.21-33.371-74.62-74.535-74.62z"  horiz-adv-x="1024" />

    
    <glyph glyph-name="huangguan" unicode="&#59155;" d="M941.8-128h-859.6c-45.4 0-82.2 36.8-82.2 82.2v859.6c0 45.4 36.8 82.2 82.2 82.2h859.6c45.4 0 82.2-36.8 82.2-82.2v-859.6c0-45.4-36.8-82.2-82.2-82.2zM883.1 655.4c-24.1-1.2-46.2-16.6-55.8-38.7-10.8-24.7-5.5-49.9 8.9-68l-6.8-28.7c-14-58.8-66.5-100.2-126.9-100.2-68 0-124.6 52.3-130 120.1l-6.5 81.5c31.4 20.8 49.9 59.5 40.9 101.5-7.7 36.1-37 65.2-73.1 72.8-62.3 13.1-117.1-34.1-117.1-94.1 0-33.5 17.2-63 43.2-80.3l-6.5-81.5c-5.4-67.8-62-120.1-130-120.1-60.4 0-112.9 41.5-126.9 100.2l-6.8 28.7c14.5 18 19.7 43.3 8.9 68-9.6 22.1-31.7 37.5-55.8 38.7-44 2.2-76-36.2-68.9-76.9 3.9-22.5 18.8-40.2 38.2-48.8l58.4-428.8 685.1 0.2 58.4 428.6c19.4 8.6 34.3 26.4 38.2 48.8 6.9 40.8-25.1 79.2-69.1 77zM512.9 189.8l-104.2 104.2 104.2 104.2 104.2-104.2-104.2-104.2zM762.8-31.6h-503.8c-50.1 0-90.6 40.6-90.6 90.6v11h685.1v-11c0-50-40.6-90.6-90.7-90.6z"  horiz-adv-x="1025" />

    
    <glyph glyph-name="saoma1" unicode="&#58882;" d="M1272.242 337.455h-1241.212c-9.418 0-31.030 21.613-31.030 31.030v31.030c0 9.433 21.613 31.030 31.030 31.030h1241.212c9.418 0 31.030-21.597 31.030-31.030v-31.030c0-9.681-21.597-32.489-31.030-31.030zM1086.061 755.867c0 31.589-30.472 62.557-62.526 62.557-54.241 0-138.659 0-232.262 0v77.576h201.697c100.864-0.093 171.163-56.91 170.667-155.152v-217.212h-77.576c0 93.913 0 178.114 0 232.231zM217.212 756.364c0-50.688 0-136.052 0-232.727h-77.576v217.212c0 98.257 56.863 155.152 155.152 155.152h217.212v-77.576c-99.111 0-185.468 0-232.727 0-31.496 0-62.061-31.356-62.061-62.061zM217.212 11.342c0-29.898 30.425-61.766 63.566-61.766 54.148 0 137.899 0 231.222 0v-77.576h-232.727c-98.273 0-139.636 56.879-139.636 155.152v217.212h77.576c0-94.177 0-178.859 0-233.022zM1086.061 12.086c0 54.101 0 138.333 0 232.277h77.576v-217.212c0.093-98.273-56.444-155.089-155.152-155.152h-217.212v77.576c93.712 0 177.773 0 231.889 0 32.504 0 62.898 31.154 62.898 62.511z"  horiz-adv-x="1304" />

    
    <glyph glyph-name="chushaixuanxiang" unicode="&#58907;" d="M512 275.456l253.338-253.338c13.889-13.889 33.077-22.48 54.272-22.48 42.389 0 76.752 34.363 76.752 76.752 0 21.195-8.591 40.383-22.48 54.272l-253.235 253.338 253.235 253.338c13.889 13.889 22.48 33.077 22.48 54.272 0 42.389-34.363 76.752-76.752 76.752-21.195 0-40.383-8.591-54.272-22.48l-253.338-253.235-253.338 253.235c-13.889 13.889-33.077 22.48-54.272 22.48-42.389 0-76.752-34.363-76.752-76.752 0-21.195 8.591-40.383 22.48-54.272l253.235-253.338-253.235-253.338c-13.889-13.889-22.48-33.077-22.48-54.272 0-42.389 34.363-76.752 76.752-76.752 21.195 0 40.383 8.591 54.272 22.48l253.338 253.235z"  horiz-adv-x="1024" />

    
    <glyph glyph-name="up" unicode="&#58883;" d="M880.102-49.49c18.020-17.82 47.144-17.82 65.097 0 17.954 17.753 17.954 46.611 0 64.429l-401.157 395.954c-18.020 17.82-47.077 17.82-65.097 0l-401.157-395.953c-17.954-17.82-18.020-46.611 0-64.429s47.21-17.82 65.097-0.067l368.641 350.142 368.576-350.076z"  horiz-adv-x="1024" />

    
    <glyph glyph-name="yiguoqi" unicode="&#58948;" d="M512 861.866667c262.826667 0 477.866667-215.04 477.866667-477.866667S774.826667-93.866667 512-93.866667 34.133333 121.173333 34.133333 384 249.173333 861.866667 512 861.866667m0 34.133333C228.693333 896 0 667.306667 0 384s228.693333-512 512-512 512 228.693333 512 512S795.306667 896 512 896zM520.533333 750.933333zM873.813333 431.786667c8.533333-49.493333 5.12-98.986667-6.826666-148.48-25.6-92.16-83.626667-168.96-167.253334-218.453334-54.613333-30.72-116.053333-47.786667-179.2-47.786666-83.626667 0-162.133333 29.013333-225.28 80.213333l-15.36-8.533333c68.266667-58.026667 153.6-88.746667 242.346667-88.746667 63.146667 0 128 17.066667 187.733333 51.2 139.946667 81.92 208.213333 238.933333 180.906667 390.826667l-17.066667-10.24zM529.066667 750.933333h-15.36c-64.853333-1.706667-124.586667-18.773333-179.2-49.493333C203.093333 626.346667 136.533333 486.4 146.773333 346.453333l17.066667 8.533334c-1.706667 37.546667 1.706667 75.093333 11.946667 112.64 25.6 92.16 83.626667 168.96 167.253333 218.453333 54.613333 30.72 116.053333 47.786667 170.666667 47.786667 69.973333 0 138.24-20.48 196.266666-58.026667l17.066667 10.24C665.6 725.333333 599.04 747.52 529.066667 750.933333zM192.853333 264.533333l17.066667 10.24 15.36-27.306666 121.173333 69.973333-30.72 51.2-145.066666-83.626667-6.826667 13.653334 162.133333 93.866666 54.613334-93.866666-17.066667-10.24-6.826667 11.946666-121.173333-69.973333 34.133333-58.026667c6.826667-11.946667 17.066667-15.36 29.013334-8.533333l98.986666 58.026667c11.946667 6.826667 15.36 15.36 13.653334 23.893333-1.706667 10.24-6.826667 22.186667-13.653334 35.84 6.826667 0 13.653333 1.706667 20.48 3.413333 6.826667-15.36 10.24-27.306667 13.653334-37.546666 5.12-17.066667-1.706667-32.426667-20.48-42.666667L303.786667 145.066667c-20.48-11.946667-37.546667-6.826667-49.493334 13.653333L192.853333 264.533333zM370.346667 435.2c15.36-5.12 32.426667-11.946667 51.2-20.48-3.413333-6.826667-6.826667-11.946667-8.533334-18.773333-17.066667 8.533333-34.133333 17.066667-49.493333 23.893333l6.826667 15.36z m165.546666-138.24l54.613334 30.72 59.733333 37.546667c0-6.826667 1.706667-13.653333 3.413333-20.48l-58.026666-35.84-52.906667-27.306667c-23.893333-13.653333-44.373333-15.36-64.853333-6.826667-1.706667-5.12-5.12-18.773333-8.533334-39.253333l-17.066666 11.946667c5.12 15.36 8.533333 27.306667 11.946666 35.84l-39.253333 69.973333-23.893333-13.653333-8.533334 15.36 39.253334 22.186666 51.2-87.04c15.36-6.826667 34.133333-5.12 52.906666 6.826667z m-104.106666 122.88l87.04 49.493333-22.186667 39.253334 17.066667 10.24 22.186666-39.253334 34.133334 20.48 8.533333-15.36-34.133333-20.48 47.786666-83.626666c10.24-17.066667 6.826667-30.72-10.24-40.96-8.533333-5.12-18.773333-10.24-30.72-17.066667-3.413333 5.12-8.533333 10.24-13.653333 17.066667 11.946667 5.12 22.186667 10.24 30.72 15.36 8.533333 5.12 10.24 11.946667 3.413333 20.48l-46.08 78.506666-87.04-49.493333-6.826666 15.36z m30.72-34.133333l6.826666 17.066666c25.6-10.24 46.08-18.773333 59.733334-25.6l-8.533334-18.773333c-20.48 10.24-39.253333 20.48-58.026666 27.306667zM634.88 409.6l18.773333 10.24-54.613333 93.866667-17.066667-10.24-8.533333 13.653333 17.066667 10.24-13.653334 23.893333 15.36 8.533334 13.653334-23.893334 42.666666 23.893334-15.36 25.6 15.36 8.533333 15.36-25.6 17.066667 10.24 8.533333-13.653333-17.066666-10.24 54.613333-93.866667 15.36 8.533333 8.533333-13.653333-107.52-61.44-8.533333 15.36z m-6.826667 90.453333l42.666667 23.893334-13.653333 22.186666-42.666667-23.893333 13.653333-22.186667z m20.48-35.84l42.666667 23.893334-13.653333 22.186666-42.666667-23.893333 13.653333-22.186667z m20.48-35.84l42.666667 23.893334-13.653333 22.186666-42.666667-22.186666 13.653333-23.893334z m10.24-17.066666l18.773334-3.413334c-5.12-22.186667-10.24-42.666667-15.36-58.026666-5.12 1.706667-10.24 3.413333-17.066667 5.12 5.12 18.773333 10.24 37.546667 13.653333 56.32z m0 192.853333l71.68 40.96 93.866667-163.84c8.533333-15.36 6.826667-29.013333-8.533333-37.546667-6.826667-5.12-15.36-8.533333-22.186667-11.946666-3.413333 3.413333-6.826667 8.533333-11.946667 13.653333 10.24 5.12 17.066667 8.533333 22.186667 10.24 6.826667 5.12 8.533333 10.24 5.12 17.066667l-23.893333 42.666666-42.666667-25.6c15.36-30.72 20.48-59.733333 15.36-88.746666-5.12 1.706667-11.946667 3.413333-18.773333 5.12 3.413333 18.773333 3.413333 35.84-1.706667 51.2-3.413333 15.36-15.36 37.546667-34.133333 69.973333l-44.373334 76.8z m64.853334 18.773333l-40.96-23.893333 22.186666-39.253333 40.96 23.893333-22.186666 39.253333z m-32.426667-206.506666l3.413333 15.36c13.653333-1.706667 27.306667-3.413333 39.253334-5.12l-3.413334-17.066667c-13.653333 3.413333-25.6 5.12-39.253333 6.826667z m42.666667 90.453333l42.666666 23.893333-22.186666 39.253334-40.96-23.893334c8.533333-17.066667 17.066667-30.72 20.48-39.253333z"  horiz-adv-x="1024" />

    
    <glyph glyph-name="xiangshangjiantouarrowup" unicode="&#58884;" d="M143.898 582.826c-18.020 17.821-47.144 17.82-65.098 0-17.954-17.753-17.953-46.611 0-64.429l401.157-395.954c18.020-17.821 47.077-17.82 65.098 0l401.157 395.953c17.954 17.82 18.020 46.611 0 64.429s-47.21 17.82-65.097 0.067l-368.641-350.142-368.576 350.077z"  horiz-adv-x="1024" />

    
    <glyph glyph-name="ren" unicode="&#58968;" d="M660.3377269841269 367.93490996825403c63.609585777777774 46.82495898412698 105.13127415873015 121.9640909206349 105.13127517460316 206.83000380952382 0 141.6993726984127-115.29052139682538 256.98742247619043-256.99730793650787 256.98742247619043-141.7055502222222 0-256.9973069206349-115.28804977777776-256.9973069206349-256.98742247619043 0-85.90135974603173 42.520067047619044-161.88689066666666 107.45547073015872-208.56233853968251C206.83029333333337 306.28254273015875 98.74465726984135 158.24198095238103 98.74465726984135-14.874200380952402c0-21.27609701587301 17.25292596825397-38.52902298412698 38.5302593015873-38.52902298412698 21.27856761904762 0 38.53025828571429 17.25292596825397 38.53025828571429 38.52902298412698 0 183.42617396825392 149.2316962539682 332.67146158730156 332.66651936507935 332.67146158730156 1.5890041904761902 0 3.1137564444444434 0.20634819047619046 4.694110476190476 0.2434173968253968 0.800679619047619-0.055602793650793646 1.5531713015873012-0.2434163809523809 2.3625010793650794-0.2434173968253968 183.4335878095238 0 332.6640487619047-149.24528863492063 332.6640477460317-332.67146158730156 0-21.27609701587301 17.254162285714287-38.52902298412698 38.532729904761894-38.52902298412698 21.277332317460314 0 38.53025828571429 17.25292596825397 38.5302593015873 38.52902298412698-0.0012353015873015872 174.88558628571425-110.35422984126984 324.12963860317456-264.91761574603174 382.8091103492063z m-331.80282209523807 206.83000380952382c0 99.22008076190475 80.7204165079365 179.92690488888886 179.93555403174602 179.92690488888886s179.93679034920635-80.70806044444444 179.93679034920635-179.92690488888886c0-99.20278146031745-80.7216518095238-179.90960660317458-179.93679034920635-179.90960660317458s-179.93555403174602 80.70806044444444-179.93555403174602 179.90960660317458z"  horiz-adv-x="1024" />

    
    <glyph glyph-name="zanwuxiaoxi" unicode="&#58893;" d="M502.36416 674.41664a24.76032 24.76032 0 0 0-24.76032-24.76032h-99.04128a24.75008 24.75008 0 1 0 0 49.52064h99.04128a24.77056 24.77056 0 0 0 24.76032-24.76032zM637.184 674.41664c0-13.68064-7.80288-24.76032-17.41824-24.76032h-69.70368c-9.61536 0-17.43872 11.07968-17.43872 24.76032 0 13.6704 7.82336 24.76032 17.43872 24.76032h69.70368c9.61536 0 17.41824-11.08992 17.41824-24.76032zM788.48 574.0032a28.8768 28.8768 0 0 0-28.8768-28.8768H473.48736a28.8768 28.8768 0 0 0-28.8768 28.8768 28.8768 28.8768 0 0 0 28.8768 28.88704H759.6032A28.88704 28.88704 0 0 0 788.48 574.0032zM865.51552 470.8352a27.51488 27.51488 0 0 0-27.52512-27.51488h-431.9232a27.51488 27.51488 0 0 0 0 55.02976h431.9232a27.51488 27.51488 0 0 0 27.52512-27.51488zM890.27584 373.17632a28.88704 28.88704 0 0 0-28.8768-28.88704h-79.80032a28.88704 28.88704 0 0 0 0 57.77408h79.80032a28.8768 28.8768 0 0 0 28.8768-28.88704zM730.69568 373.17632c0-15.95392-19.22048-28.88704-42.9568-28.88704H135.41376c-23.73632 0-42.96704 12.94336-42.96704 28.88704 0 15.95392 19.23072 28.88704 42.96704 28.88704h552.32512c23.73632 0.01024 42.9568-12.93312 42.9568-28.88704zM260.27008 314.03008a30.2592 30.2592 0 0 0-30.26944-30.2592h-41.25696a30.26944 30.26944 0 0 0 0 60.5184h41.25696a30.26944 30.26944 0 0 0 30.26944-30.2592zM557.40416 254.88384a33.01376 33.01376 0 0 0-33.024-33.01376H51.18976a33.01376 33.01376 0 0 0 0 66.02752h473.1904a33.03424 33.03424 0 0 0 33.024-33.01376zM981.06368 138.25024a32.7168 32.7168 0 0 0-32.7168-32.7168H554.3424a32.7168 32.7168 0 0 0 0 65.4336h394.00448a32.70656 32.70656 0 0 0 32.7168-32.7168zM650.93632 81.85856a23.67488 23.67488 0 0 0-23.67488-23.68512h-32.44032a23.68512 23.68512 0 0 0-23.67488 23.68512 23.69536 23.69536 0 0 0 23.67488 23.67488h32.44032a23.67488 23.67488 0 0 0 23.67488-23.67488zM915.03616 34.57024a23.59296 23.59296 0 0 0-23.6032-23.59296H451.67616a23.59296 23.59296 0 1 0 0 47.19616h439.76704a23.57248 23.57248 0 0 0 23.59296-23.6032zM1005.824 34.57024a23.59296 23.59296 0 0 0-23.58272-23.59296H963.3792a23.59296 23.59296 0 0 0-23.58272 23.59296 23.58272 23.58272 0 0 0 23.58272 23.6032h18.86208a23.59296 23.59296 0 0 0 23.58272-23.6032zM105.92256 68.07552h739.75808v-10.26048H105.92256zM293.76512 512.01024l-77.6704-52.96128v-367.22688s0-22.94784 26.48064-26.48064c26.49088-3.5328 536.7296 0 536.7296 0s26.48064 10.58816 26.48064 28.24192v372.5312l-77.68064 45.89568H293.76512zM393.49248 61.20448c-92.44672 0-143.33952 0.54272-151.26528 1.59744-28.37504 3.77856-28.70272 28.7744-28.70272 29.02016V460.40064l79.45216 54.1696h435.82464l0.6144-0.3584 78.94016-46.6432v-373.99552c0-19.16928-26.95168-30.16704-28.09856-30.6176l-0.93184-0.19456c-2.27328 0-228.608-1.55648-385.83296-1.55648z m-174.83776 396.4928v-365.8752c0.01024-0.83968 0.4096-20.75648 24.25856-23.94112 7.70048-1.024 58.368-1.536 150.58944-1.536 153.58976 0 373.1456 1.4848 385.28 1.55648 3.29728 1.4336 24.44288 11.14112 24.44288 25.68192V464.64l-75.80672 44.8h-432.8448l-75.91936-51.74272zM622.81728 534.77376v-223.97952l-118.76352-85.56544-207.28832 160.08192v220.8768s-2.304 25.32352 17.80736 27.02336c10.89536 0.94208 81.70496 0.41984 144.29184-0.19456h1.75104c52.1216-0.5632 98.02752-1.1776 98.02752-1.1776l64.08192-96.93184 0.09216-0.13312zM504.00256 222.02368L294.1952 384.0512V606.18752c-0.04096 0.33792-1.18784 13.90592 6.12352 22.62016 3.45088 4.12672 8.17152 6.46144 14.03904 6.9632 4.08576 0.34816 16.18944 0.52224 36.99712 0.52224 24.00256 0 58.17344-0.21504 107.53024-0.70656h1.72032c52.15232-0.5632 98.05824-1.1776 98.05824-1.1776l1.36192-0.01024 65.25952-98.7136 0.1024-0.91136v-225.29024l-121.38496-87.45984zM299.32544 386.57024l204.77952-158.14656 116.14208 83.68128v221.9008l-62.99648 95.29344c-7.95648 0.1024-49.79712 0.65536-96.6656 1.16736h-1.72032c-49.36704 0.48128-83.51744 0.70656-107.50976 0.70656-20.36736 0-32.6656-0.17408-36.5568-0.512-4.5056-0.37888-7.95648-2.05824-10.53696-5.14048-5.95968-7.09632-4.94592-18.97472-4.93568-19.08736v-219.86304zM312.65792 560.61952h249.96864v-52.96128H312.65792zM312.65792 483.9424h182.49728v-19.00544H312.65792zM312.65792 437.87264h241.54112v-15.23712H312.65792zM404.69504 534.77376l-0.79872-231.9872 102.51264-79.37024 224.33792 163.81952V606.18752s2.32448 25.32352-17.8176 27.02336c-10.87488 0.94208-81.68448 0.41984-144.2816-0.19456h-1.7408c-52.1216-0.5632-98.02752-1.1776-98.02752-1.1776l-64.08192-96.93184-0.1024-0.13312zM506.35776 220.20096l-105.03168 81.31584 0.80896 234.07616 0.47104 0.6656 64.8704 98.12992 1.36192 0.01024s45.90592 0.62464 98.02752 1.1776h1.77152c49.33632 0.48128 83.5072 0.70656 107.50976 0.70656 20.80768 0 32.91136-0.17408 36.98688-0.52224 5.85728-0.49152 10.58816-2.83648 14.04928-6.9632 7.31136-8.72448 6.16448-22.272 6.11328-22.84544l0.01024-220.02688-1.06496-0.768-225.88416-164.95616z m-99.8912 83.83488l99.98336-77.42464L728.1664 388.53632V606.18752c0.02048 0.34816 1.01376 12.26752-4.92544 19.33312-2.58048 3.072-6.03136 4.75136-10.53696 5.13024-3.88096 0.33792-16.1792 0.512-36.54656 0.512-23.98208 0-58.14272-0.22528-107.47904-0.70656h-1.77152c-46.848-0.50176-88.6784-1.06496-96.63488-1.16736l-63.00672-95.30368-0.79872-229.94944zM464.88576 560.61952h249.97888v-52.96128H464.88576zM532.35712 483.9424H714.8544v-19.00544H532.35712zM473.30304 437.87264H714.8544v-15.23712H473.30304zM506.35776 220.20096L346.34752 344.09472V571.66848l0.54272 0.69632 64.8192 98.03776 1.35168 0.01024s45.90592 0.6144 98.02752 1.1776h1.78176c52.13184-0.57344 98.05824-1.1776 98.05824-1.1776l1.36192-0.01024 65.25952-98.7136 0.1024-226.2016-171.29472-125.2864zM351.47776 346.61376l154.97216-119.99232 166.06208 121.46688-0.1024 222.06464-62.90432 95.15008c-7.95648 0.1024-49.80736 0.64512-96.6656 1.16736h-1.72032c-46.83776-0.512-88.66816-1.06496-96.63488-1.16736l-63.01696-95.32416v-223.36512zM868.63872 68.07552h33.536v-10.26048h-33.536zM506.35776 220.20096l-1.52576 1.1776-206.97088 159.72352-36.34176 27.42272 3.09248 4.096 36.37248-27.4432 205.4656-158.55616 254.74048 186.01984 3.0208-4.1472zM675.08224 570.7776v-223.98976L506.40896 223.40608l-2.34496 1.81248-155.11552 120.13568 0.08192 296.84736s-2.31424 25.31328 17.80736 27.01312c10.88512 0.95232 81.70496 0.41984 144.29184-0.18432h1.75104c52.10112-0.57344 98.02752-1.1776 98.02752-1.1776l64.08192-96.93184 0.09216-0.14336zM506.368 220.20096L346.37824 344.09472v1.25952l0.08192 296.84736c-0.04096 0.33792-1.18784 13.89568 6.12352 22.60992 3.45088 4.11648 8.18176 6.46144 14.03904 6.9632 4.07552 0.3584 16.18944 0.52224 37.02784 0.52224 30.91456 0 76.15488-0.39936 107.49952-0.69632h1.72032c52.13184-0.57344 98.05824-1.1776 98.05824-1.1776l1.36192-0.01024 65.25952-98.7136 0.1024-0.91136V345.4976L506.368 220.20096zM351.51872 346.61376l154.9312-119.99232 166.06208 121.46688V570.0096l-62.99648 95.29344c-7.95648 0.1024-49.80736 0.64512-96.6656 1.16736h-1.72032c-31.35488 0.29696-76.58496 0.69632-107.47904 0.69632-20.39808 0-32.70656-0.17408-36.58752-0.512-4.5056-0.37888-7.95648-2.05824-10.53696-5.12-5.9392-7.05536-4.95616-18.97472-4.94592-19.0976l-0.06144-295.82336zM364.91264 596.62336h249.96864v-52.95104H364.91264zM364.91264 519.936h182.50752v-19.00544H364.91264zM364.91264 473.86624h241.54112v-15.22688H364.91264zM364.91264 426.31168h158.52544v-16.61952H364.91264zM364.91264 379.98592h245.4016v-16.82432H364.91264zM605.31712 602.9312l65.15712-28.86656-59.86304 90.9824s-24.53504-41.45152 0 0c-29.85984-50.44224-15.63648-26.44992-21.69856-36.48512-9.76896-16.1792 16.40448-25.63072 16.40448-25.63072zM677.4272 568.17664l-73.15456 32.4096c-0.47104 0.16384-15.60576 5.7344-19.3024 16.15872-1.51552 4.29056-0.93184 8.71424 1.7408 13.13792 0.80896 1.3312 1.35168 2.23232 1.78176 2.83648l9.0112 15.2064 0.26624 0.45056 12.72832 21.504 66.92864-101.70368z m-84.81792 61.8496l0.1536-0.11264c-0.11264-0.17408-0.512-0.8192-1.6384-2.69312-1.87392-3.09248-2.29376-5.95968-1.30048-8.76544 2.8672-8.13056 16.24064-13.06624 16.37376-13.11744l57.35424-25.3952-52.80768 80.25088-8.25344-13.93664a571.11552 571.11552 0 0 0-8.86784-14.75584l-0.7168-1.40288-0.17408 0.08192a0.80896 0.80896 0 0 1-0.12288-0.1536zM804.02432 709.64224l-34.44736-55.40864v-0.37888h34.816v-9.17504h-48.9472v6.17472l34.816 55.97184v0.37888h-31.81568v9.08288h45.57824v-6.64576zM862.464 745.94304l-21.97504-35.33824v-0.23552h22.21056v-5.85728h-31.22176v3.9424l22.20032 35.6864v0.23552h-20.29568v5.7856h29.0816v-4.21888zM505.68192 147.17952l-111.72864 80.09728 5.98016 8.3456 105.53344-75.66336 97.98656 75.24352 6.25664-8.1408z"  horiz-adv-x="1024" />

    
    <glyph glyph-name="yuan" unicode="&#58887;" d="M512 896C228.072727 896 0 667.927273 0 384s228.072727-512 512-512 512 228.072727 512 512S795.927273 896 512 896z"  horiz-adv-x="1024" />

    
    <glyph glyph-name="gerensvg" unicode="&#58976;" d="M691.917541 311.41265799999996c84.484629 57.588427 140.036166 154.583725 140.036166 264.587342C832 752.734901 688.723327 896 512 896S192 752.734901 192 576c0-110.003617 55.551537-206.998915 140.036166-264.587342C163.888608 240.954792 45.714286 74.89041599999996 45.714286-118.85714299999995c0-3.066908 0.173599-6.087523 0.231464-9.142857h932.1085c0 3.055335 0.231465 6.075949 0.231464 9.142857 0 193.747559-118.174322 359.811935-286.368173 430.269801zM83.512477-91.42857100000003h856.963472c-12.533816 198.284268-159.236166 360.0434-350.553345 395.110307C708.513562 337.568174 795.428571 446.530199 795.428571 576c0 156.539602-126.900542 283.428571-283.428571 283.428571S228.571429 732.5396020000001 228.571429 576c0-129.469801 86.915009-238.40868 205.505967-272.318264C242.760217 268.614828 96.057866 106.85569599999997 83.512477-91.42857100000003z"  horiz-adv-x="1024" />

    
    <glyph glyph-name="geren_weixuanzhong" unicode="&#58984;" d="M691.926528 311.344198a320.013846 320.013846 0 1 1-359.852684 0A465.406989 465.406989 0 0 1 45.755464-118.878023V-128h932.303281v9.121977A465.406989 465.406989 0 0 1 691.926528 311.344198zM511.907105 568.993507m-215.204192 0a215.204192 215.204192 0 1 1 430.408384 0 215.204192 215.204192 0 1 1-430.408384 0ZM511.162454 245.628731A357.432568 357.432568 0 0 1 168.436747-13.882206H855.563626A357.618731 357.618731 0 0 1 511.162454 245.628731z"  horiz-adv-x="1024" />

    
    <glyph glyph-name="xiangshangjiantouarrowup1" unicode="&#59006;" d="M737.489902 752.101759c17.819854 18.020155 17.819854 47.143649 0 65.097286-17.75333901 17.953637-46.610574 17.953637-64.429405 0L277.10649 416.042085c-17.819854-18.020155-17.819854-47.077131 0-65.097286L673.059474-50.21216100000004c17.819854-17.953637 46.610574-18.020155 64.429405 0s17.819854 47.210166 0.066515 65.097286l-350.141612 368.641064L737.489902 752.101759 737.489902 752.101759z"  horiz-adv-x="1024" />

    
    <glyph glyph-name="xiangshangjiantouarrowup11" unicode="&#59007;" d="M270.510098 15.898240999999985c-17.819854-18.020155-17.819854-47.143649 0-65.097286 17.75333901-17.953637 46.610574-17.953637 64.429405 0L730.89351 351.95791499999996c17.819854 18.020155 17.819854 47.077131 0 65.097286L334.940526 818.212161c-17.819854 17.953637-46.610574 18.020155-64.429405 0s-17.819854-47.210166-0.066515-65.097286l350.141612-368.641064L270.510098 15.898240999999985 270.510098 15.898240999999985z"  horiz-adv-x="1024" />

    
    <glyph glyph-name="shouye_xuanzhong" unicode="&#58988;" d="M921.6 486.4L512 896 0 384 71.675 312.25l30.725 30.725V-128h358.4V76.8h102.4V-128h358.4V343.0375L952.3125 312.25l71.6875 71.75z"  horiz-adv-x="1024" />

    
    <glyph glyph-name="QR" unicode="&#58990;" d="M976.68805-31.336333v-49.355813H1023.97952v-47.287374h-145.98876V-80.692146h49.355813v49.355813h49.355813zM732.002-127.97952h-145.98876V-80.692146h49.355813v49.355813h47.29147v47.287374h49.355813v-47.287374h145.98876v-49.355813H732.002v-47.287374z m-96.641139 193.286374v47.287374h96.641139v51.403772h49.355813v-148.046959h-49.355813v49.355813h-96.641139z m-49.355813 0h49.355813v-49.355813h-49.355813v-47.287374h-49.355813v96.643187h-47.277134v49.335333h47.29147v49.355813h-98.69729v47.287374h-49.355813v98.711626h-47.283279v47.283278h-47.293518v-47.283278h47.293518v-47.307854H195.338429v47.307854H148.044911v47.283278h96.641139v98.711626H195.338429v47.277135h148.044911v-47.291471h94.562461v-49.355812h-47.27099v-49.355813h47.29147v-98.687051h51.403772v98.701386h-51.403772v49.355813h98.69729v96.632948h-51.403772v-47.291471h-47.293518v98.695243h51.403772v47.293518h47.29147v-47.293518h49.355813v47.293518h49.355813v-98.69729h-49.355813v-47.291471h100.759584v-49.355812h-100.759584v-49.355813h-47.297614v-193.282279h47.293518v145.999h53.451731v49.353765h47.29147v-49.339429h45.245559v98.68705h47.285326v47.293518H732.002v47.291471h47.29147v-47.291471h49.337381v-49.355812h-49.337381v-96.6309h98.69729v-47.307854h49.355813v143.944897h-49.355813v49.355813h-49.355813v47.285327H1023.97952v-193.272039h-47.29147v-94.595228H1023.97952v-51.403772h-96.641139v51.403772h-49.355813v-100.759585h49.355813v-49.335333H974.623708v49.335333H1023.97952v-98.691146h-195.338429V260.641187h-49.355813v-49.355813h-143.924417v-98.691146h-49.355813v-47.287374zM343.369005 455.977568h-49.355813v-49.355812h49.355813v49.355812z m94.597276 98.695243h-49.355813v98.69729h100.759585v-51.403772h-51.403772v-47.293518z m49.355813-635.364957v49.355813h49.355812v-49.355813h-49.355812z m-47.293519-47.287374h-49.355812V-31.336333h47.29147v49.355813h49.355813v-49.355813h-47.297614v-96.643187z m-51.403771 193.286374v98.691146h49.355812v-98.691146h-49.355812zM98.69729 309.997H0v193.272039h98.69729v-47.291471H49.355813v-51.403771h49.355813v51.403771h96.622707v-49.355812H148.044911v-49.355813h-49.355813v-47.283279z m437.966281 343.373101h49.355813v-51.403772h-49.355813v51.403772z m-148.044911 98.69729V896h248.798352v-98.69729h-51.403772V844.596228h-49.355813v-47.293518h-47.285326V844.596228h-51.403772v-92.528837h148.046959v-51.403772h-197.396628v51.403772z m248.798352-51.403772v-47.29147h-51.403772V700.661571h51.403772z m191.224079-341.325142v47.289422h49.355813v-47.29147h-49.355813zM678.540029 896H1023.97952v-345.439491H678.540029V896z m53.451731-102.807544v-189.169976H970.527789V842.540077H732.002v-49.355813z m189.180217-139.822355h-139.822356V793.190408H921.171977v-139.820307zM0 896h345.439491v-345.439491H0V896z m53.451731-102.807544v-189.169976h238.525789V842.540077H53.451731v-49.355813z m189.169977-139.820307H102.807544V793.190408h139.820307v-139.820307z m102.807543-781.349621H0V217.449731h345.439491v-345.429251z m-53.451731 102.807543v189.169977H53.451731v-238.525789h238.525789v49.355812zM102.807544 114.642187h139.820307v-139.814164H102.807544v139.814164z"  horiz-adv-x="1024" />

    
    <glyph glyph-name="jifen1" unicode="&#58991;" d="M512 853.333C252.79 853.333 42.667 643.211 42.667 384S252.789-85.333 512-85.333 981.333 124.789 981.333 384 771.211 853.333 512 853.333z m0-874.666c-223.861 0-405.333 181.472-405.333 405.333S288.139 789.333 512 789.333 917.333 607.861 917.333 384 735.861-21.333 512-21.333zM321.12 126.55c-6.197 0-15.296 1.909-23.477 10.997-5.547 6.282-8.406 13.546-8.406 21.13 0 20.032 21.099 32.608 36.96 40.31 50.443 24.373 81.174 63.456 93.995 119.477 2.997 12.917 5.696 27.765 8.053 44.32h-54.624c-16.522 0-28.373 8.064-32.522 21.29-6.336-5.557-12-10.143-17.067-13.823-11.275-8.214-21.632-12.224-31.67-12.224-9.791 0-18.538 3.978-24.629 11.2-5.024 5.322-8.01 12.981-8.01 21.429 0 17.11 14.293 29.76 25.045 37.781 42.475 31.51 79.115 71.872 108.928 120.011 10.517 16.875 14.795 24.779 16.523 28.448 8.096 17.173 19.893 36.885 39.392 36.885 9.184 0 17.461-3.605 23.914-10.421 5.568-5.973 8.47-13.184 8.47-20.97 0-8.598-2.934-22.443-24.704-59.873-18.208-31.53-42.39-63.509-71.99-95.242h222.816c13.558 0 25.206-2.432 34.784-7.083-1.269 1.344-2.549 2.73-3.85 4.139-27.179 29.237-50.816 60.341-70.198 92.426-31.008 51.275-33.61 64.502-33.61 72.886v0.544c0 9.888 4.117 18.869 11.584 25.269a31.947 31.947 0 0 0 21.301 7.872c23.008 0 34.517-25.77 38.304-34.24 7.84-17.099 19.936-38.165 35.861-62.453 13.408-20.342 30.368-40.832 50.411-60.875 14.347-14.187 26.315-24.757 35.488-31.339 25.237-17.717 36.075-31.424 36.075-45.738 0-8.576-3.243-16.448-9.376-22.763-6.283-6.453-14.144-9.877-22.763-9.877-11.979 0-29.099 5.322-64.672 39.274 3.99-8.64 6.059-18.89 6.059-30.634v-2.752l-6.016-133.568c-1.504-34.208-5.995-56.352-14.155-69.654-12.981-21.162-36.427-31.904-69.707-31.904-26.09 0-50.592 3.275-72.8 9.718-26.282 7.69-39.584 20.437-39.584 37.92 0 9.365 3.52 17.642 10.187 23.936 9.867 9.152 22.421 9.962 37.6 5.45 26.219-7.445 48.107-11.253 64.843-11.253 7.541 0 11.669 1.44 12.917 2.677l-0.021-0.021c-0.192 0 3.477 6.965 4.736 34.784l5.717 132c-0.075-0.363-3.05 0.79-9.6 0.79H494.699c-5.462-47.286-14.347-83.969-27.083-111.691-17.28-37.43-43.243-68.683-77.184-92.939-30.603-21.6-52.587-31.627-69.312-31.627z"  horiz-adv-x="1024" />

    


  </font>
</defs>
</svg>
